<?xml version="1.0" encoding="iso-8859-1"?>
<!-- Generator: Adobe Illustrator 19.1.0, SVG Export Plug-In . SVG Version: 6.00 Build 0)  -->
<svg version="1.1" id="Capa_1" xmlns="http://www.w3.org/2000/svg" xmlns:xlink="http://www.w3.org/1999/xlink" x="0px" y="0px"
	 viewBox="0 0 482.8 482.8" style="enable-background:new 0 0 482.8 482.8;" xml:space="preserve">
<g>
	<g>
		<path d="M431.3,114.5c-1.4-3.3-3.5-6.4-6.1-8.9l-101.9-98c-2.5-2.4-5.4-4.3-8.6-5.6l0,0c-3.2-1.3-6.6-2-10.1-2H109
			C76,0,49.3,26.7,49.3,59.7v363.4c0,33,26.7,59.7,59.7,59.7h264.8c33,0,59.7-26.7,59.7-59.7v-298
			C433.5,121.5,432.7,117.9,431.3,114.5z M405.3,423.2c0,17.4-14.2,31.5-31.5,31.5H109c-17.4,0-31.5-14.2-31.5-31.5V59.8
			c0-17.4,14.1-31.5,31.5-31.5h186.7V74c0,32.9,26.8,59.7,59.7,59.7h49.9V423.2z"/>
		<path d="M110,241.5L110,241.5c0,7.7,6.3,14.1,14.1,14.1h237.1c7.7,0,14.1-6.3,14.1-14.1l0,0c0-7.7-6.3-14.1-14.1-14.1H124.1
			C116.3,227.4,110,233.8,110,241.5z"/>
		<path d="M361.1,283.7h-237c-7.7,0-14.1,6.3-14.1,14.1l0,0c0,7.7,6.3,14.1,14.1,14.1h237.1c7.7,0,14.1-6.3,14.1-14.1l0,0
			C375.2,290,368.9,283.7,361.1,283.7z"/>
		<path d="M361.1,340h-237c-7.7,0-14.1,6.3-14.1,14.1l0,0c0,7.7,6.3,14.1,14.1,14.1h237.1c7.7,0,14.1-6.3,14.1-14.1l0,0
			C375.2,346.3,368.9,340,361.1,340z"/>
		<path d="M255.1,396.2H122.9c-7.7,0-14.1,6.3-14.1,14.1c0,7.7,6.3,14.1,14.1,14.1h132.3c7.7,0,14.1-6.3,14.1-14.1
			C269.2,402.6,262.9,396.2,255.1,396.2z"/>
		<path d="M188.1,149.4L188.1,149.4v-6c0,0,18.9,0.6,27.9-8.6c0,0-13.1-3.7-10.7-27.5c2.3-23.8-2.9-44.7-22-42.9
			c0,0-8.3-10-24.8-3.7c-5.7,2.2-20.9,7.6-20.1,40.6c0.8,33-11.7,33.2-11.7,33.2s6.4,9.4,28.3,9.2v6.1l16.6,48.5l16.6-48.4
			L188.1,149.4z"/>
		<path d="M112.6,201.5h58.2h1.5h58.2c1.4,0,2.4-1.2,2.2-2.6l-3.3-18.4c-1.1-6-4.9-11.1-10.4-13.8l-20.9-10.3
			c-1.2-0.6-2.4-1.2-3.5-1.9l6.6,19.5l-9.2-0.7l-20.3,25l-20.3-25l-9.2,0.7l6.7-19.5l-4.2,2.1l-20.4,10.1
			c-5.5,2.7-9.3,7.8-10.4,13.8l-3.3,18.4C110.2,200.3,111.2,201.5,112.6,201.5z"/>
	</g>
</g>
<g>
</g>
<g>
</g>
<g>
</g>
<g>
</g>
<g>
</g>
<g>
</g>
<g>
</g>
<g>
</g>
<g>
</g>
<g>
</g>
<g>
</g>
<g>
</g>
<g>
</g>
<g>
</g>
<g>
</g>
</svg>
